%TF.GenerationSoftware,KiCad,Pcbnew,9.0.4*%
%TF.CreationDate,2026-03-08T18:55:45+09:00*%
%TF.ProjectId,pchMosFet_mod,7063684d-6f73-4466-9574-5f6d6f642e6b,rev?*%
%TF.SameCoordinates,PX5672dc0PY5aa68b0*%
%TF.FileFunction,Copper,L2,Bot*%
%TF.FilePolarity,Positive*%
%FSLAX46Y46*%
G04 Gerber Fmt 4.6, Leading zero omitted, Abs format (unit mm)*
G04 Created by KiCad (PCBNEW 9.0.4) date 2026-03-08 18:55:45*
%MOMM*%
%LPD*%
G01*
G04 APERTURE LIST*
%TA.AperFunction,ComponentPad*%
%ADD10R,1.700000X1.700000*%
%TD*%
%TA.AperFunction,ComponentPad*%
%ADD11C,1.700000*%
%TD*%
%TA.AperFunction,ComponentPad*%
%ADD12C,1.600000*%
%TD*%
%TA.AperFunction,ComponentPad*%
%ADD13R,1.500000X1.050000*%
%TD*%
%TA.AperFunction,ComponentPad*%
%ADD14O,1.500000X1.050000*%
%TD*%
%TA.AperFunction,ComponentPad*%
%ADD15O,1.717500X1.800000*%
%TD*%
%TA.AperFunction,ComponentPad*%
%ADD16R,1.717500X1.800000*%
%TD*%
%TA.AperFunction,ViaPad*%
%ADD17C,0.600000*%
%TD*%
%TA.AperFunction,Conductor*%
%ADD18C,2.000000*%
%TD*%
%TA.AperFunction,Conductor*%
%ADD19C,0.200000*%
%TD*%
G04 APERTURE END LIST*
D10*
%TO.P,J2,1,Pin_1*%
%TO.N,GND*%
X4348000Y2090000D03*
D11*
%TO.P,J2,2,Pin_2*%
%TO.N,TRIG*%
X6888000Y2090000D03*
%TO.P,J2,3,Pin_3*%
%TO.N,VCC*%
X9428000Y2090000D03*
%TD*%
D12*
%TO.P,R1,1*%
%TO.N,TRIG*%
X11991500Y17584000D03*
%TO.P,R1,2*%
%TO.N,Net-(Q1-B)*%
X1991500Y17584000D03*
%TD*%
%TO.P,R2,1*%
%TO.N,VCC*%
X11968000Y24696000D03*
%TO.P,R2,2*%
%TO.N,Net-(Q2-G)*%
X1968000Y24696000D03*
%TD*%
%TO.P,R3,1*%
%TO.N,Net-(Q2-G)*%
X1968000Y21140000D03*
%TO.P,R3,2*%
%TO.N,Net-(Q1-C)*%
X11968000Y21140000D03*
%TD*%
D13*
%TO.P,Q1,1,E*%
%TO.N,GND*%
X4348000Y7424000D03*
D14*
%TO.P,Q1,2,C*%
%TO.N,Net-(Q1-C)*%
X4348000Y8694000D03*
%TO.P,Q1,3,B*%
%TO.N,Net-(Q1-B)*%
X4348000Y9964000D03*
%TD*%
D15*
%TO.P,Q2,1,D*%
%TO.N,Net-(J1-Pin_2)*%
X8158000Y27490000D03*
D16*
%TO.P,Q2,2,G*%
%TO.N,Net-(Q2-G)*%
X5868000Y27490000D03*
D15*
%TO.P,Q2,3,S*%
%TO.N,VCC*%
X10448000Y27490000D03*
%TD*%
D12*
%TO.P,R4,1*%
%TO.N,Net-(Q1-B)*%
X1991500Y14028000D03*
%TO.P,R4,2*%
%TO.N,GND*%
X11991500Y14028000D03*
%TD*%
D10*
%TO.P,J1,1,Pin_1*%
%TO.N,GND*%
X7904000Y41714000D03*
D11*
%TO.P,J1,2,Pin_2*%
%TO.N,Net-(J1-Pin_2)*%
X5364000Y41714000D03*
%TD*%
D17*
%TO.N,Net-(Q1-C)*%
X6634000Y19870000D03*
%TO.N,TRIG*%
X7904000Y16060000D03*
%TD*%
D18*
%TO.N,Net-(J1-Pin_2)*%
X5364000Y32570000D02*
X8158000Y29776000D01*
X5364000Y41714000D02*
X5364000Y32570000D01*
X8158000Y29776000D02*
X8158000Y27490000D01*
D19*
%TO.N,Net-(Q1-B)*%
X1991500Y17584000D02*
X1991500Y14028000D01*
X2570000Y14028000D02*
X1991500Y14028000D01*
X4348000Y11671500D02*
X1991500Y14028000D01*
X4348000Y9964000D02*
X4348000Y11671500D01*
%TO.N,Net-(Q1-C)*%
X601000Y11425000D02*
X601000Y18663000D01*
X3332000Y8694000D02*
X601000Y11425000D01*
X6634000Y19870000D02*
X6634000Y19893500D01*
X4348000Y8694000D02*
X3332000Y8694000D01*
X1554000Y19616000D02*
X6380000Y19616000D01*
X6380000Y19616000D02*
X6634000Y19870000D01*
X601000Y18663000D02*
X1554000Y19616000D01*
%TO.N,Net-(Q2-G)*%
X1968000Y24696000D02*
X1968000Y21140000D01*
D18*
%TO.N,VCC*%
X11206000Y3868000D02*
X11206000Y10980000D01*
X9682000Y12504000D02*
X9682000Y22410000D01*
X10698000Y25966000D02*
X10698000Y27240000D01*
X11968000Y24696000D02*
X10698000Y25966000D01*
X10698000Y27240000D02*
X10448000Y27490000D01*
X9682000Y22410000D02*
X11968000Y24696000D01*
X11206000Y10980000D02*
X9682000Y12504000D01*
X9682000Y2344000D02*
X11206000Y3868000D01*
D19*
%TO.N,TRIG*%
X6888000Y5138000D02*
X7142000Y5392000D01*
X6888000Y2090000D02*
X6888000Y5138000D01*
X7142000Y5392000D02*
X7142000Y15298000D01*
X7142000Y15298000D02*
X7904000Y16060000D01*
%TD*%
M02*
