%TF.GenerationSoftware,KiCad,Pcbnew,9.0.4*%
%TF.CreationDate,2026-03-01T21:02:10+09:00*%
%TF.ProjectId,pchMosFet_mod,7063684d-6f73-4466-9574-5f6d6f642e6b,rev?*%
%TF.SameCoordinates,PX5672dc0PY5aa68b0*%
%TF.FileFunction,Legend,Top*%
%TF.FilePolarity,Positive*%
%FSLAX46Y46*%
G04 Gerber Fmt 4.6, Leading zero omitted, Abs format (unit mm)*
G04 Created by KiCad (PCBNEW 9.0.4) date 2026-03-01 21:02:10*
%MOMM*%
%LPD*%
G01*
G04 APERTURE LIST*
%ADD10C,0.125000*%
%ADD11C,0.100000*%
%ADD12C,0.150000*%
%ADD13C,0.120000*%
G04 APERTURE END LIST*
D10*
X5446140Y31365262D02*
X5350902Y31412881D01*
X5350902Y31412881D02*
X5208045Y31412881D01*
X5208045Y31412881D02*
X5065188Y31365262D01*
X5065188Y31365262D02*
X4969950Y31270024D01*
X4969950Y31270024D02*
X4922331Y31174786D01*
X4922331Y31174786D02*
X4874712Y30984310D01*
X4874712Y30984310D02*
X4874712Y30841453D01*
X4874712Y30841453D02*
X4922331Y30650977D01*
X4922331Y30650977D02*
X4969950Y30555739D01*
X4969950Y30555739D02*
X5065188Y30460500D01*
X5065188Y30460500D02*
X5208045Y30412881D01*
X5208045Y30412881D02*
X5303283Y30412881D01*
X5303283Y30412881D02*
X5446140Y30460500D01*
X5446140Y30460500D02*
X5493759Y30508120D01*
X5493759Y30508120D02*
X5493759Y30841453D01*
X5493759Y30841453D02*
X5303283Y30841453D01*
X6684236Y30412881D02*
X6684236Y31412881D01*
X6684236Y31412881D02*
X6922331Y31412881D01*
X6922331Y31412881D02*
X7065188Y31365262D01*
X7065188Y31365262D02*
X7160426Y31270024D01*
X7160426Y31270024D02*
X7208045Y31174786D01*
X7208045Y31174786D02*
X7255664Y30984310D01*
X7255664Y30984310D02*
X7255664Y30841453D01*
X7255664Y30841453D02*
X7208045Y30650977D01*
X7208045Y30650977D02*
X7160426Y30555739D01*
X7160426Y30555739D02*
X7065188Y30460500D01*
X7065188Y30460500D02*
X6922331Y30412881D01*
X6922331Y30412881D02*
X6684236Y30412881D01*
X8398522Y30460500D02*
X8541379Y30412881D01*
X8541379Y30412881D02*
X8779474Y30412881D01*
X8779474Y30412881D02*
X8874712Y30460500D01*
X8874712Y30460500D02*
X8922331Y30508120D01*
X8922331Y30508120D02*
X8969950Y30603358D01*
X8969950Y30603358D02*
X8969950Y30698596D01*
X8969950Y30698596D02*
X8922331Y30793834D01*
X8922331Y30793834D02*
X8874712Y30841453D01*
X8874712Y30841453D02*
X8779474Y30889072D01*
X8779474Y30889072D02*
X8588998Y30936691D01*
X8588998Y30936691D02*
X8493760Y30984310D01*
X8493760Y30984310D02*
X8446141Y31031929D01*
X8446141Y31031929D02*
X8398522Y31127167D01*
X8398522Y31127167D02*
X8398522Y31222405D01*
X8398522Y31222405D02*
X8446141Y31317643D01*
X8446141Y31317643D02*
X8493760Y31365262D01*
X8493760Y31365262D02*
X8588998Y31412881D01*
X8588998Y31412881D02*
X8827093Y31412881D01*
X8827093Y31412881D02*
X8969950Y31365262D01*
D11*
X4667693Y5201962D02*
X4572455Y5249581D01*
X4572455Y5249581D02*
X4429598Y5249581D01*
X4429598Y5249581D02*
X4286741Y5201962D01*
X4286741Y5201962D02*
X4191503Y5106724D01*
X4191503Y5106724D02*
X4143884Y5011486D01*
X4143884Y5011486D02*
X4096265Y4821010D01*
X4096265Y4821010D02*
X4096265Y4678153D01*
X4096265Y4678153D02*
X4143884Y4487677D01*
X4143884Y4487677D02*
X4191503Y4392439D01*
X4191503Y4392439D02*
X4286741Y4297200D01*
X4286741Y4297200D02*
X4429598Y4249581D01*
X4429598Y4249581D02*
X4524836Y4249581D01*
X4524836Y4249581D02*
X4667693Y4297200D01*
X4667693Y4297200D02*
X4715312Y4344820D01*
X4715312Y4344820D02*
X4715312Y4678153D01*
X4715312Y4678153D02*
X4524836Y4678153D01*
X6524837Y5249581D02*
X7096265Y5249581D01*
X6810551Y4249581D02*
X6810551Y5249581D01*
X9153027Y5249581D02*
X9486360Y4249581D01*
X9486360Y4249581D02*
X9819693Y5249581D01*
X4905884Y39428534D02*
X5667789Y39428534D01*
X5286836Y39047581D02*
X5286836Y39809486D01*
X7667789Y39428534D02*
X8429694Y39428534D01*
D12*
X1422819Y1756667D02*
X2137104Y1756667D01*
X2137104Y1756667D02*
X2279961Y1709048D01*
X2279961Y1709048D02*
X2375200Y1613810D01*
X2375200Y1613810D02*
X2422819Y1470953D01*
X2422819Y1470953D02*
X2422819Y1375715D01*
X1518057Y2185239D02*
X1470438Y2232858D01*
X1470438Y2232858D02*
X1422819Y2328096D01*
X1422819Y2328096D02*
X1422819Y2566191D01*
X1422819Y2566191D02*
X1470438Y2661429D01*
X1470438Y2661429D02*
X1518057Y2709048D01*
X1518057Y2709048D02*
X1613295Y2756667D01*
X1613295Y2756667D02*
X1708533Y2756667D01*
X1708533Y2756667D02*
X1851390Y2709048D01*
X1851390Y2709048D02*
X2422819Y2137620D01*
X2422819Y2137620D02*
X2422819Y2756667D01*
X3927333Y17891181D02*
X3594000Y18367372D01*
X3355905Y17891181D02*
X3355905Y18891181D01*
X3355905Y18891181D02*
X3736857Y18891181D01*
X3736857Y18891181D02*
X3832095Y18843562D01*
X3832095Y18843562D02*
X3879714Y18795943D01*
X3879714Y18795943D02*
X3927333Y18700705D01*
X3927333Y18700705D02*
X3927333Y18557848D01*
X3927333Y18557848D02*
X3879714Y18462610D01*
X3879714Y18462610D02*
X3832095Y18414991D01*
X3832095Y18414991D02*
X3736857Y18367372D01*
X3736857Y18367372D02*
X3355905Y18367372D01*
X4879714Y17891181D02*
X4308286Y17891181D01*
X4594000Y17891181D02*
X4594000Y18891181D01*
X4594000Y18891181D02*
X4498762Y18748324D01*
X4498762Y18748324D02*
X4403524Y18653086D01*
X4403524Y18653086D02*
X4308286Y18605467D01*
X9340761Y15859181D02*
X8769333Y15859181D01*
X9055047Y15859181D02*
X9055047Y16859181D01*
X9055047Y16859181D02*
X8959809Y16716324D01*
X8959809Y16716324D02*
X8864571Y16621086D01*
X8864571Y16621086D02*
X8769333Y16573467D01*
X9959809Y16859181D02*
X10055047Y16859181D01*
X10055047Y16859181D02*
X10150285Y16811562D01*
X10150285Y16811562D02*
X10197904Y16763943D01*
X10197904Y16763943D02*
X10245523Y16668705D01*
X10245523Y16668705D02*
X10293142Y16478229D01*
X10293142Y16478229D02*
X10293142Y16240134D01*
X10293142Y16240134D02*
X10245523Y16049658D01*
X10245523Y16049658D02*
X10197904Y15954420D01*
X10197904Y15954420D02*
X10150285Y15906800D01*
X10150285Y15906800D02*
X10055047Y15859181D01*
X10055047Y15859181D02*
X9959809Y15859181D01*
X9959809Y15859181D02*
X9864571Y15906800D01*
X9864571Y15906800D02*
X9816952Y15954420D01*
X9816952Y15954420D02*
X9769333Y16049658D01*
X9769333Y16049658D02*
X9721714Y16240134D01*
X9721714Y16240134D02*
X9721714Y16478229D01*
X9721714Y16478229D02*
X9769333Y16668705D01*
X9769333Y16668705D02*
X9816952Y16763943D01*
X9816952Y16763943D02*
X9864571Y16811562D01*
X9864571Y16811562D02*
X9959809Y16859181D01*
X10721714Y15859181D02*
X10721714Y16859181D01*
X10816952Y16240134D02*
X11102666Y15859181D01*
X11102666Y16525848D02*
X10721714Y16144896D01*
X3927333Y25003181D02*
X3594000Y25479372D01*
X3355905Y25003181D02*
X3355905Y26003181D01*
X3355905Y26003181D02*
X3736857Y26003181D01*
X3736857Y26003181D02*
X3832095Y25955562D01*
X3832095Y25955562D02*
X3879714Y25907943D01*
X3879714Y25907943D02*
X3927333Y25812705D01*
X3927333Y25812705D02*
X3927333Y25669848D01*
X3927333Y25669848D02*
X3879714Y25574610D01*
X3879714Y25574610D02*
X3832095Y25526991D01*
X3832095Y25526991D02*
X3736857Y25479372D01*
X3736857Y25479372D02*
X3355905Y25479372D01*
X4308286Y25907943D02*
X4355905Y25955562D01*
X4355905Y25955562D02*
X4451143Y26003181D01*
X4451143Y26003181D02*
X4689238Y26003181D01*
X4689238Y26003181D02*
X4784476Y25955562D01*
X4784476Y25955562D02*
X4832095Y25907943D01*
X4832095Y25907943D02*
X4879714Y25812705D01*
X4879714Y25812705D02*
X4879714Y25717467D01*
X4879714Y25717467D02*
X4832095Y25574610D01*
X4832095Y25574610D02*
X4260667Y25003181D01*
X4260667Y25003181D02*
X4879714Y25003181D01*
X8785238Y23621943D02*
X8832857Y23669562D01*
X8832857Y23669562D02*
X8928095Y23717181D01*
X8928095Y23717181D02*
X9166190Y23717181D01*
X9166190Y23717181D02*
X9261428Y23669562D01*
X9261428Y23669562D02*
X9309047Y23621943D01*
X9309047Y23621943D02*
X9356666Y23526705D01*
X9356666Y23526705D02*
X9356666Y23431467D01*
X9356666Y23431467D02*
X9309047Y23288610D01*
X9309047Y23288610D02*
X8737619Y22717181D01*
X8737619Y22717181D02*
X9356666Y22717181D01*
X9785238Y22812420D02*
X9832857Y22764800D01*
X9832857Y22764800D02*
X9785238Y22717181D01*
X9785238Y22717181D02*
X9737619Y22764800D01*
X9737619Y22764800D02*
X9785238Y22812420D01*
X9785238Y22812420D02*
X9785238Y22717181D01*
X10213809Y23621943D02*
X10261428Y23669562D01*
X10261428Y23669562D02*
X10356666Y23717181D01*
X10356666Y23717181D02*
X10594761Y23717181D01*
X10594761Y23717181D02*
X10689999Y23669562D01*
X10689999Y23669562D02*
X10737618Y23621943D01*
X10737618Y23621943D02*
X10785237Y23526705D01*
X10785237Y23526705D02*
X10785237Y23431467D01*
X10785237Y23431467D02*
X10737618Y23288610D01*
X10737618Y23288610D02*
X10166190Y22717181D01*
X10166190Y22717181D02*
X10785237Y22717181D01*
X11213809Y22717181D02*
X11213809Y23717181D01*
X11309047Y23098134D02*
X11594761Y22717181D01*
X11594761Y23383848D02*
X11213809Y23002896D01*
X3927333Y21447181D02*
X3594000Y21923372D01*
X3355905Y21447181D02*
X3355905Y22447181D01*
X3355905Y22447181D02*
X3736857Y22447181D01*
X3736857Y22447181D02*
X3832095Y22399562D01*
X3832095Y22399562D02*
X3879714Y22351943D01*
X3879714Y22351943D02*
X3927333Y22256705D01*
X3927333Y22256705D02*
X3927333Y22113848D01*
X3927333Y22113848D02*
X3879714Y22018610D01*
X3879714Y22018610D02*
X3832095Y21970991D01*
X3832095Y21970991D02*
X3736857Y21923372D01*
X3736857Y21923372D02*
X3355905Y21923372D01*
X4260667Y22447181D02*
X4879714Y22447181D01*
X4879714Y22447181D02*
X4546381Y22066229D01*
X4546381Y22066229D02*
X4689238Y22066229D01*
X4689238Y22066229D02*
X4784476Y22018610D01*
X4784476Y22018610D02*
X4832095Y21970991D01*
X4832095Y21970991D02*
X4879714Y21875753D01*
X4879714Y21875753D02*
X4879714Y21637658D01*
X4879714Y21637658D02*
X4832095Y21542420D01*
X4832095Y21542420D02*
X4784476Y21494800D01*
X4784476Y21494800D02*
X4689238Y21447181D01*
X4689238Y21447181D02*
X4403524Y21447181D01*
X4403524Y21447181D02*
X4308286Y21494800D01*
X4308286Y21494800D02*
X4260667Y21542420D01*
X9269333Y19415181D02*
X8697905Y19415181D01*
X8983619Y19415181D02*
X8983619Y20415181D01*
X8983619Y20415181D02*
X8888381Y20272324D01*
X8888381Y20272324D02*
X8793143Y20177086D01*
X8793143Y20177086D02*
X8697905Y20129467D01*
X9650286Y20319943D02*
X9697905Y20367562D01*
X9697905Y20367562D02*
X9793143Y20415181D01*
X9793143Y20415181D02*
X10031238Y20415181D01*
X10031238Y20415181D02*
X10126476Y20367562D01*
X10126476Y20367562D02*
X10174095Y20319943D01*
X10174095Y20319943D02*
X10221714Y20224705D01*
X10221714Y20224705D02*
X10221714Y20129467D01*
X10221714Y20129467D02*
X10174095Y19986610D01*
X10174095Y19986610D02*
X9602667Y19415181D01*
X9602667Y19415181D02*
X10221714Y19415181D01*
X10840762Y20415181D02*
X10936000Y20415181D01*
X10936000Y20415181D02*
X11031238Y20367562D01*
X11031238Y20367562D02*
X11078857Y20319943D01*
X11078857Y20319943D02*
X11126476Y20224705D01*
X11126476Y20224705D02*
X11174095Y20034229D01*
X11174095Y20034229D02*
X11174095Y19796134D01*
X11174095Y19796134D02*
X11126476Y19605658D01*
X11126476Y19605658D02*
X11078857Y19510420D01*
X11078857Y19510420D02*
X11031238Y19462800D01*
X11031238Y19462800D02*
X10936000Y19415181D01*
X10936000Y19415181D02*
X10840762Y19415181D01*
X10840762Y19415181D02*
X10745524Y19462800D01*
X10745524Y19462800D02*
X10697905Y19510420D01*
X10697905Y19510420D02*
X10650286Y19605658D01*
X10650286Y19605658D02*
X10602667Y19796134D01*
X10602667Y19796134D02*
X10602667Y20034229D01*
X10602667Y20034229D02*
X10650286Y20224705D01*
X10650286Y20224705D02*
X10697905Y20319943D01*
X10697905Y20319943D02*
X10745524Y20367562D01*
X10745524Y20367562D02*
X10840762Y20415181D01*
X1338057Y8598762D02*
X1290438Y8503524D01*
X1290438Y8503524D02*
X1195200Y8408286D01*
X1195200Y8408286D02*
X1052342Y8265429D01*
X1052342Y8265429D02*
X1004723Y8170191D01*
X1004723Y8170191D02*
X1004723Y8074953D01*
X1242819Y8122572D02*
X1195200Y8027334D01*
X1195200Y8027334D02*
X1099961Y7932096D01*
X1099961Y7932096D02*
X909485Y7884477D01*
X909485Y7884477D02*
X576152Y7884477D01*
X576152Y7884477D02*
X385676Y7932096D01*
X385676Y7932096D02*
X290438Y8027334D01*
X290438Y8027334D02*
X242819Y8122572D01*
X242819Y8122572D02*
X242819Y8313048D01*
X242819Y8313048D02*
X290438Y8408286D01*
X290438Y8408286D02*
X385676Y8503524D01*
X385676Y8503524D02*
X576152Y8551143D01*
X576152Y8551143D02*
X909485Y8551143D01*
X909485Y8551143D02*
X1099961Y8503524D01*
X1099961Y8503524D02*
X1195200Y8408286D01*
X1195200Y8408286D02*
X1242819Y8313048D01*
X1242819Y8313048D02*
X1242819Y8122572D01*
X1242819Y9503524D02*
X1242819Y8932096D01*
X1242819Y9217810D02*
X242819Y9217810D01*
X242819Y9217810D02*
X385676Y9122572D01*
X385676Y9122572D02*
X480914Y9027334D01*
X480914Y9027334D02*
X528533Y8932096D01*
X7034485Y6160666D02*
X6996390Y6198762D01*
X6996390Y6198762D02*
X6958295Y6274952D01*
X6958295Y6274952D02*
X6958295Y6465428D01*
X6958295Y6465428D02*
X6996390Y6541619D01*
X6996390Y6541619D02*
X7034485Y6579714D01*
X7034485Y6579714D02*
X7110676Y6617809D01*
X7110676Y6617809D02*
X7186866Y6617809D01*
X7186866Y6617809D02*
X7301152Y6579714D01*
X7301152Y6579714D02*
X7758295Y6122571D01*
X7758295Y6122571D02*
X7758295Y6617809D01*
X7720200Y6922571D02*
X7758295Y7036857D01*
X7758295Y7036857D02*
X7758295Y7227333D01*
X7758295Y7227333D02*
X7720200Y7303524D01*
X7720200Y7303524D02*
X7682104Y7341619D01*
X7682104Y7341619D02*
X7605914Y7379714D01*
X7605914Y7379714D02*
X7529723Y7379714D01*
X7529723Y7379714D02*
X7453533Y7341619D01*
X7453533Y7341619D02*
X7415438Y7303524D01*
X7415438Y7303524D02*
X7377342Y7227333D01*
X7377342Y7227333D02*
X7339247Y7074952D01*
X7339247Y7074952D02*
X7301152Y6998762D01*
X7301152Y6998762D02*
X7263057Y6960667D01*
X7263057Y6960667D02*
X7186866Y6922571D01*
X7186866Y6922571D02*
X7110676Y6922571D01*
X7110676Y6922571D02*
X7034485Y6960667D01*
X7034485Y6960667D02*
X6996390Y6998762D01*
X6996390Y6998762D02*
X6958295Y7074952D01*
X6958295Y7074952D02*
X6958295Y7265429D01*
X6958295Y7265429D02*
X6996390Y7379714D01*
X7682104Y8179715D02*
X7720200Y8141619D01*
X7720200Y8141619D02*
X7758295Y8027334D01*
X7758295Y8027334D02*
X7758295Y7951143D01*
X7758295Y7951143D02*
X7720200Y7836857D01*
X7720200Y7836857D02*
X7644009Y7760667D01*
X7644009Y7760667D02*
X7567819Y7722572D01*
X7567819Y7722572D02*
X7415438Y7684476D01*
X7415438Y7684476D02*
X7301152Y7684476D01*
X7301152Y7684476D02*
X7148771Y7722572D01*
X7148771Y7722572D02*
X7072580Y7760667D01*
X7072580Y7760667D02*
X6996390Y7836857D01*
X6996390Y7836857D02*
X6958295Y7951143D01*
X6958295Y7951143D02*
X6958295Y8027334D01*
X6958295Y8027334D02*
X6996390Y8141619D01*
X6996390Y8141619D02*
X7034485Y8179715D01*
X7758295Y8941619D02*
X7758295Y8484476D01*
X7758295Y8713048D02*
X6958295Y8713048D01*
X6958295Y8713048D02*
X7072580Y8636857D01*
X7072580Y8636857D02*
X7148771Y8560667D01*
X7148771Y8560667D02*
X7186866Y8484476D01*
X7301152Y9398762D02*
X7263057Y9322572D01*
X7263057Y9322572D02*
X7224961Y9284477D01*
X7224961Y9284477D02*
X7148771Y9246381D01*
X7148771Y9246381D02*
X7110676Y9246381D01*
X7110676Y9246381D02*
X7034485Y9284477D01*
X7034485Y9284477D02*
X6996390Y9322572D01*
X6996390Y9322572D02*
X6958295Y9398762D01*
X6958295Y9398762D02*
X6958295Y9551143D01*
X6958295Y9551143D02*
X6996390Y9627334D01*
X6996390Y9627334D02*
X7034485Y9665429D01*
X7034485Y9665429D02*
X7110676Y9703524D01*
X7110676Y9703524D02*
X7148771Y9703524D01*
X7148771Y9703524D02*
X7224961Y9665429D01*
X7224961Y9665429D02*
X7263057Y9627334D01*
X7263057Y9627334D02*
X7301152Y9551143D01*
X7301152Y9551143D02*
X7301152Y9398762D01*
X7301152Y9398762D02*
X7339247Y9322572D01*
X7339247Y9322572D02*
X7377342Y9284477D01*
X7377342Y9284477D02*
X7453533Y9246381D01*
X7453533Y9246381D02*
X7605914Y9246381D01*
X7605914Y9246381D02*
X7682104Y9284477D01*
X7682104Y9284477D02*
X7720200Y9322572D01*
X7720200Y9322572D02*
X7758295Y9398762D01*
X7758295Y9398762D02*
X7758295Y9551143D01*
X7758295Y9551143D02*
X7720200Y9627334D01*
X7720200Y9627334D02*
X7682104Y9665429D01*
X7682104Y9665429D02*
X7605914Y9703524D01*
X7605914Y9703524D02*
X7453533Y9703524D01*
X7453533Y9703524D02*
X7377342Y9665429D01*
X7377342Y9665429D02*
X7339247Y9627334D01*
X7339247Y9627334D02*
X7301152Y9551143D01*
X7758295Y10465429D02*
X7758295Y10008286D01*
X7758295Y10236858D02*
X6958295Y10236858D01*
X6958295Y10236858D02*
X7072580Y10160667D01*
X7072580Y10160667D02*
X7148771Y10084477D01*
X7148771Y10084477D02*
X7186866Y10008286D01*
X6958295Y11189239D02*
X6958295Y10808287D01*
X6958295Y10808287D02*
X7339247Y10770191D01*
X7339247Y10770191D02*
X7301152Y10808287D01*
X7301152Y10808287D02*
X7263057Y10884477D01*
X7263057Y10884477D02*
X7263057Y11074953D01*
X7263057Y11074953D02*
X7301152Y11151144D01*
X7301152Y11151144D02*
X7339247Y11189239D01*
X7339247Y11189239D02*
X7415438Y11227334D01*
X7415438Y11227334D02*
X7605914Y11227334D01*
X7605914Y11227334D02*
X7682104Y11189239D01*
X7682104Y11189239D02*
X7720200Y11151144D01*
X7720200Y11151144D02*
X7758295Y11074953D01*
X7758295Y11074953D02*
X7758295Y10884477D01*
X7758295Y10884477D02*
X7720200Y10808287D01*
X7720200Y10808287D02*
X7682104Y10770191D01*
X11618761Y33797943D02*
X11523523Y33845562D01*
X11523523Y33845562D02*
X11428285Y33940800D01*
X11428285Y33940800D02*
X11285428Y34083658D01*
X11285428Y34083658D02*
X11190190Y34131277D01*
X11190190Y34131277D02*
X11094952Y34131277D01*
X11142571Y33893181D02*
X11047333Y33940800D01*
X11047333Y33940800D02*
X10952095Y34036039D01*
X10952095Y34036039D02*
X10904476Y34226515D01*
X10904476Y34226515D02*
X10904476Y34559848D01*
X10904476Y34559848D02*
X10952095Y34750324D01*
X10952095Y34750324D02*
X11047333Y34845562D01*
X11047333Y34845562D02*
X11142571Y34893181D01*
X11142571Y34893181D02*
X11333047Y34893181D01*
X11333047Y34893181D02*
X11428285Y34845562D01*
X11428285Y34845562D02*
X11523523Y34750324D01*
X11523523Y34750324D02*
X11571142Y34559848D01*
X11571142Y34559848D02*
X11571142Y34226515D01*
X11571142Y34226515D02*
X11523523Y34036039D01*
X11523523Y34036039D02*
X11428285Y33940800D01*
X11428285Y33940800D02*
X11333047Y33893181D01*
X11333047Y33893181D02*
X11142571Y33893181D01*
X11952095Y34797943D02*
X11999714Y34845562D01*
X11999714Y34845562D02*
X12094952Y34893181D01*
X12094952Y34893181D02*
X12333047Y34893181D01*
X12333047Y34893181D02*
X12428285Y34845562D01*
X12428285Y34845562D02*
X12475904Y34797943D01*
X12475904Y34797943D02*
X12523523Y34702705D01*
X12523523Y34702705D02*
X12523523Y34607467D01*
X12523523Y34607467D02*
X12475904Y34464610D01*
X12475904Y34464610D02*
X11904476Y33893181D01*
X11904476Y33893181D02*
X12523523Y33893181D01*
X12168819Y29466668D02*
X11168819Y29466668D01*
X11168819Y29466668D02*
X11168819Y29847620D01*
X11168819Y29847620D02*
X11216438Y29942858D01*
X11216438Y29942858D02*
X11264057Y29990477D01*
X11264057Y29990477D02*
X11359295Y30038096D01*
X11359295Y30038096D02*
X11502152Y30038096D01*
X11502152Y30038096D02*
X11597390Y29990477D01*
X11597390Y29990477D02*
X11645009Y29942858D01*
X11645009Y29942858D02*
X11692628Y29847620D01*
X11692628Y29847620D02*
X11692628Y29466668D01*
X12168819Y30466668D02*
X11168819Y30466668D01*
X11168819Y30466668D02*
X11883104Y30800001D01*
X11883104Y30800001D02*
X11168819Y31133334D01*
X11168819Y31133334D02*
X12168819Y31133334D01*
X11168819Y31800001D02*
X11168819Y31990477D01*
X11168819Y31990477D02*
X11216438Y32085715D01*
X11216438Y32085715D02*
X11311676Y32180953D01*
X11311676Y32180953D02*
X11502152Y32228572D01*
X11502152Y32228572D02*
X11835485Y32228572D01*
X11835485Y32228572D02*
X12025961Y32180953D01*
X12025961Y32180953D02*
X12121200Y32085715D01*
X12121200Y32085715D02*
X12168819Y31990477D01*
X12168819Y31990477D02*
X12168819Y31800001D01*
X12168819Y31800001D02*
X12121200Y31704763D01*
X12121200Y31704763D02*
X12025961Y31609525D01*
X12025961Y31609525D02*
X11835485Y31561906D01*
X11835485Y31561906D02*
X11502152Y31561906D01*
X11502152Y31561906D02*
X11311676Y31609525D01*
X11311676Y31609525D02*
X11216438Y31704763D01*
X11216438Y31704763D02*
X11168819Y31800001D01*
X12121200Y32609525D02*
X12168819Y32752382D01*
X12168819Y32752382D02*
X12168819Y32990477D01*
X12168819Y32990477D02*
X12121200Y33085715D01*
X12121200Y33085715D02*
X12073580Y33133334D01*
X12073580Y33133334D02*
X11978342Y33180953D01*
X11978342Y33180953D02*
X11883104Y33180953D01*
X11883104Y33180953D02*
X11787866Y33133334D01*
X11787866Y33133334D02*
X11740247Y33085715D01*
X11740247Y33085715D02*
X11692628Y32990477D01*
X11692628Y32990477D02*
X11645009Y32800001D01*
X11645009Y32800001D02*
X11597390Y32704763D01*
X11597390Y32704763D02*
X11549771Y32657144D01*
X11549771Y32657144D02*
X11454533Y32609525D01*
X11454533Y32609525D02*
X11359295Y32609525D01*
X11359295Y32609525D02*
X11264057Y32657144D01*
X11264057Y32657144D02*
X11216438Y32704763D01*
X11216438Y32704763D02*
X11168819Y32800001D01*
X11168819Y32800001D02*
X11168819Y33038096D01*
X11168819Y33038096D02*
X11216438Y33180953D01*
X3927333Y14335181D02*
X3594000Y14811372D01*
X3355905Y14335181D02*
X3355905Y15335181D01*
X3355905Y15335181D02*
X3736857Y15335181D01*
X3736857Y15335181D02*
X3832095Y15287562D01*
X3832095Y15287562D02*
X3879714Y15239943D01*
X3879714Y15239943D02*
X3927333Y15144705D01*
X3927333Y15144705D02*
X3927333Y15001848D01*
X3927333Y15001848D02*
X3879714Y14906610D01*
X3879714Y14906610D02*
X3832095Y14858991D01*
X3832095Y14858991D02*
X3736857Y14811372D01*
X3736857Y14811372D02*
X3355905Y14811372D01*
X4784476Y15001848D02*
X4784476Y14335181D01*
X4546381Y15382800D02*
X4308286Y14668515D01*
X4308286Y14668515D02*
X4927333Y14668515D01*
X9340761Y12303181D02*
X8769333Y12303181D01*
X9055047Y12303181D02*
X9055047Y13303181D01*
X9055047Y13303181D02*
X8959809Y13160324D01*
X8959809Y13160324D02*
X8864571Y13065086D01*
X8864571Y13065086D02*
X8769333Y13017467D01*
X9959809Y13303181D02*
X10055047Y13303181D01*
X10055047Y13303181D02*
X10150285Y13255562D01*
X10150285Y13255562D02*
X10197904Y13207943D01*
X10197904Y13207943D02*
X10245523Y13112705D01*
X10245523Y13112705D02*
X10293142Y12922229D01*
X10293142Y12922229D02*
X10293142Y12684134D01*
X10293142Y12684134D02*
X10245523Y12493658D01*
X10245523Y12493658D02*
X10197904Y12398420D01*
X10197904Y12398420D02*
X10150285Y12350800D01*
X10150285Y12350800D02*
X10055047Y12303181D01*
X10055047Y12303181D02*
X9959809Y12303181D01*
X9959809Y12303181D02*
X9864571Y12350800D01*
X9864571Y12350800D02*
X9816952Y12398420D01*
X9816952Y12398420D02*
X9769333Y12493658D01*
X9769333Y12493658D02*
X9721714Y12684134D01*
X9721714Y12684134D02*
X9721714Y12922229D01*
X9721714Y12922229D02*
X9769333Y13112705D01*
X9769333Y13112705D02*
X9816952Y13207943D01*
X9816952Y13207943D02*
X9864571Y13255562D01*
X9864571Y13255562D02*
X9959809Y13303181D01*
X10721714Y12303181D02*
X10721714Y13303181D01*
X10816952Y12684134D02*
X11102666Y12303181D01*
X11102666Y12969848D02*
X10721714Y12588896D01*
X9733819Y41380667D02*
X10448104Y41380667D01*
X10448104Y41380667D02*
X10590961Y41333048D01*
X10590961Y41333048D02*
X10686200Y41237810D01*
X10686200Y41237810D02*
X10733819Y41094953D01*
X10733819Y41094953D02*
X10733819Y40999715D01*
X10733819Y42380667D02*
X10733819Y41809239D01*
X10733819Y42094953D02*
X9733819Y42094953D01*
X9733819Y42094953D02*
X9876676Y41999715D01*
X9876676Y41999715D02*
X9971914Y41904477D01*
X9971914Y41904477D02*
X10019533Y41809239D01*
X2008819Y40571143D02*
X2008819Y40094953D01*
X2008819Y40094953D02*
X1008819Y40094953D01*
X1008819Y41094953D02*
X1008819Y41285429D01*
X1008819Y41285429D02*
X1056438Y41380667D01*
X1056438Y41380667D02*
X1151676Y41475905D01*
X1151676Y41475905D02*
X1342152Y41523524D01*
X1342152Y41523524D02*
X1675485Y41523524D01*
X1675485Y41523524D02*
X1865961Y41475905D01*
X1865961Y41475905D02*
X1961200Y41380667D01*
X1961200Y41380667D02*
X2008819Y41285429D01*
X2008819Y41285429D02*
X2008819Y41094953D01*
X2008819Y41094953D02*
X1961200Y40999715D01*
X1961200Y40999715D02*
X1865961Y40904477D01*
X1865961Y40904477D02*
X1675485Y40856858D01*
X1675485Y40856858D02*
X1342152Y40856858D01*
X1342152Y40856858D02*
X1151676Y40904477D01*
X1151676Y40904477D02*
X1056438Y40999715D01*
X1056438Y40999715D02*
X1008819Y41094953D01*
X1723104Y41904477D02*
X1723104Y42380667D01*
X2008819Y41809239D02*
X1008819Y42142572D01*
X1008819Y42142572D02*
X2008819Y42475905D01*
X2008819Y42809239D02*
X1008819Y42809239D01*
X1008819Y42809239D02*
X1008819Y43047334D01*
X1008819Y43047334D02*
X1056438Y43190191D01*
X1056438Y43190191D02*
X1151676Y43285429D01*
X1151676Y43285429D02*
X1246914Y43333048D01*
X1246914Y43333048D02*
X1437390Y43380667D01*
X1437390Y43380667D02*
X1580247Y43380667D01*
X1580247Y43380667D02*
X1770723Y43333048D01*
X1770723Y43333048D02*
X1865961Y43285429D01*
X1865961Y43285429D02*
X1961200Y43190191D01*
X1961200Y43190191D02*
X2008819Y43047334D01*
X2008819Y43047334D02*
X2008819Y42809239D01*
D13*
%TO.C,J2*%
X2968000Y710000D02*
X2968000Y2090000D01*
X4348000Y710000D02*
X2968000Y710000D01*
X5618000Y3470000D02*
X10808000Y3470000D01*
X5618000Y710000D02*
X5618000Y3470000D01*
X5618000Y710000D02*
X10808000Y710000D01*
X10808000Y710000D02*
X10808000Y3470000D01*
%TO.C,R1*%
X7246224Y18106500D02*
X6736776Y18106500D01*
X7246224Y17061500D02*
X6736776Y17061500D01*
%TO.C,R2*%
X7222724Y25218500D02*
X6713276Y25218500D01*
X7222724Y24173500D02*
X6713276Y24173500D01*
%TO.C,R3*%
X6713276Y21662500D02*
X7222724Y21662500D01*
X6713276Y20617500D02*
X7222724Y20617500D01*
%TO.C,Q1*%
X6198000Y6894000D02*
X6198000Y10494000D01*
X1748000Y8694000D02*
G75*
G02*
X6186478Y10532478I2600000J0D01*
G01*
X6186478Y6855522D02*
G75*
G02*
X1747999Y8694000I-1838478J1838478D01*
G01*
%TO.C,Q2*%
X3484000Y37100000D02*
X3774000Y37100000D01*
X3484000Y29880000D02*
X3484000Y37100000D01*
X3484000Y29880000D02*
X10284000Y29880000D01*
X4109000Y29880000D02*
X4109000Y28650000D01*
X5079000Y29880000D02*
X5079000Y28650000D01*
X6399000Y29880000D02*
X6399000Y28650000D01*
X7369000Y29880000D02*
X7369000Y28650000D01*
X8689000Y29880000D02*
X8689000Y28650000D01*
X9659000Y29880000D02*
X9659000Y28650000D01*
X9994000Y37100000D02*
X10284000Y37100000D01*
X10284000Y29880000D02*
X10284000Y37100000D01*
%TO.C,R4*%
X6736776Y14550500D02*
X7246224Y14550500D01*
X6736776Y13505500D02*
X7246224Y13505500D01*
%TO.C,J1*%
X3984000Y43094000D02*
X3984000Y40334000D01*
X6634000Y43094000D02*
X3984000Y43094000D01*
X6634000Y43094000D02*
X6634000Y40334000D01*
X6634000Y40334000D02*
X3984000Y40334000D01*
X7904000Y43094000D02*
X9284000Y43094000D01*
X9284000Y43094000D02*
X9284000Y41714000D01*
%TD*%
M02*
